:SAMPLES-PER-SECOND 30
:FULLY-SPECIFIED
:DEGREES
144
root  -71.8037 40.5364 -1.4838 -3.59558 -3.62859 2.70889
RightUpLeg  -11.6611 10.6428 -21.4603
RightLeg  27.5749 2.46358 1.16394
RightFoot  -5.8857 -0.472549 9.08635
RightToes  -4.65663e-010 0 -3.6325e-017
Spine  10.0352 2.10474 -5.48513
Spine1  6.8835 2.5279 -3.73763
HEad  18.0091 6.34575 -2.42811
LeftShoulder1  5.67079 -8.57984 -40.6148
LeftArm  -17.661 23.4515 -34.0893
LeftForeArm  43.858 -35.1226 -5.34874
LeftHand  -0.244104 0.0205437 5.32207
RightShoulder  4.87129 8.41272 34.9193
RightArm  4.44584 -12.5291 42.3146
RightForeArm  10.4361 37.6376 8.01189
RightHand  -1.39131 3.36538 -18.5491
LeftUpLeg  -6.15415 -0.174148 -7.253
LeftLeg  18.9232 -7.3576 -2.8281
LeftFoot  -7.74251 -0.147689 6.17799
LeftToes  -5.82109e-011 -4.83791e-012 -1.00937e-011
145
root  -72.9081 40.4583 -1.35356 -2.89738 2.50027 3.15825
RightUpLeg  -9.21365 14.8994 -22.2714
RightLeg  21.5767 6.98206 2.84179
RightFoot  -8.22299 -0.324862 9.9178
RightToes  -4.65663e-010 0 -3.6325e-017
Spine  10.9668 1.88073 -5.36261
Spine1  6.02998 2.2886 -3.91404
HEad  16.4512 6.83968 -1.54477
LeftShoulder1  5.72895 -8.68244 -40.6925
LeftArm  -17.4269 22.8751 -32.4139
LeftForeArm  42.9901 -35.1574 -5.40326
LeftHand  -0.244104 0.0205437 5.32207
RightShoulder  4.82381 8.39318 34.5919
RightArm  5.4953 -13.0178 41.829
RightForeArm  10.2653 37.6337 8.02132
RightHand  -1.46235 3.64712 -18.8835
LeftUpLeg  -7.34359 -4.53304 -6.44838
LeftLeg  20.642 -9.77829 -3.63963
LeftFoot  -8.52302 -0.0458801 3.92822
LeftToes  -5.82109e-011 -4.83791e-012 -1.00937e-011
146
root  -74.0255 40.307 -1.21436 -1.82108 8.57329 3.93787
RightUpLeg  -7.17579 15.404 -22.4064
RightLeg  17.3302 11.7717 3.74372
RightFoot  -10.3636 -0.167713 11.3821
RightToes  -4.65663e-010 0 -3.6325e-017
Spine  11.6172 1.7136 -5.32922
Spine1  5.20429 2.07768 -3.81515
HEad  14.8353 8.45435 -1.81125
LeftShoulder1  5.72571 -8.68075 -40.6738
LeftArm  -18.0246 22.4837 -30.9056
LeftForeArm  42.0716 -35.8804 -5.63553
LeftHand  -0.244104 0.0205437 5.32207
RightShoulder  4.77883 8.44913 34.0321
RightArm  6.22182 -13.6096 41.5893
RightForeArm  9.33238 37.532 8.04878
RightHand  -1.53278 3.78029 -19.4931
LeftUpLeg  -9.25913 -9.60576 -5.62578
LeftLeg  22.3585 -10.9934 -4.59384
LeftFoot  -9.28694 0.0286948 1.51185
LeftToes  -5.82109e-011 -4.83791e-012 -1.00937e-011
147
root  -75.1719 40.205 -1.08855 -0.617706 14.5847 4.70531
RightUpLeg  -5.44501 11.6419 -21.2627
RightLeg  15.6398 13.9439 3.11367
RightFoot  -12.3266 0.0176179 12.0358
RightToes  -4.65663e-010 0 -3.6325e-017
Spine  12.0654 1.77477 -5.25216
Spine1  4.94737 1.9782 -2.86298
HEad  12.9448 10.798 -2.89426
LeftShoulder1  5.8382 -8.82188 -41.0253
LeftArm  -19.4495 21.8608 -29.3407
LeftForeArm  41.5484 -37.349 -6.04598
LeftHand  -0.244104 0.0205437 5.32207
RightShoulder  4.7293 8.47171 33.5473
RightArm  6.93995 -13.8475 41.0131
RightForeArm  8.28811 37.3012 8.044
RightHand  -1.60624 3.99199 -19.9505
LeftUpLeg  -11.1074 -13.9508 -4.48692
LeftLeg  23.1238 -12.2712 -5.35772
LeftFoot  -9.56418 0.0704934 -0.776295
LeftToes  -5.82109e-011 -4.83791e-012 -1.00937e-011
148
root  -76.3494 40.2489 -0.992461 0.135391 20.394 4.73039
RightUpLeg  -4.13444 8.02701 -18.8734
RightLeg  16.0756 10.8416 1.81325
RightFoot  -13.723 0.134767 10.9777
RightToes  -4.65663e-010 0 -3.6325e-017
Spine  12.8173 1.84354 -3.61549
Spine1  5.06521 2.17033 -2.43329
HEad  10.8434 13.4099 -4.12506
LeftShoulder1  6.05894 -9.13212 -41.5768
LeftArm  -21.0993 20.6362 -27.7447
LeftForeArm  41.1422 -38.7494 -6.44549
LeftHand  -0.244104 0.0205437 5.32207
RightShoulder  4.76956 8.49116 33.8161
RightArm  7.97049 -13.3068 39.8297
RightForeArm  6.51143 36.1222 7.80991
RightHand  -1.80664 4.73406 -20.7748
LeftUpLeg  -12.2537 -18.0066 -2.3173
LeftLeg  22.4223 -14.756 -6.26569
LeftFoot  -8.98627 0.104346 -2.46083
LeftToes  -5.82109e-011 -4.83791e-012 -1.00937e-011
149
root  -77.5108 40.39 -0.903519 0.447861 25.6187 3.90099
RightUpLeg  -3.72283 5.57978 -15.9173
RightLeg  17.329 6.53802 0.934063
RightFoot  -13.8672 0.104448 8.91008
RightToes  -4.65663e-010 0 -3.6325e-017
Spine  13.6547 1.79667 0.0424641
Spine1  4.97471 2.79976 -3.65671
HEad  9.17146 15.65 -5.21017
LeftShoulder1  6.21867 -9.4122 -41.7642
LeftArm  -22.1058 19.0392 -26.7556
LeftForeArm  40.9082 -39.0993 -6.55699
LeftHand  -0.244104 0.0205437 5.32207
RightShoulder  4.86511 8.52994 34.4761
RightArm  9.53277 -12.3022 38.8132
RightForeArm  4.08181 33.2619 7.16165
RightHand  -1.97409 5.39931 -21.318
LeftUpLeg  -13.1361 -20.9503 0.76429
LeftLeg  20.4956 -17.9602 -6.97434
LeftFoot  -7.62246 0.168848 -3.74869
LeftToes  -5.82109e-011 -4.83791e-012 -1.00937e-011
150
root  -78.5881 40.5801 -0.786854 1.21774 30.3881 3.29103
RightUpLeg  -4.04319 0.968898 -13.7795
RightLeg  17.735 6.22887 0.977619
RightFoot  -12.8867 0.00750193 7.02205
RightToes  -4.65663e-010 0 -3.6325e-017
Spine  13.8287 1.87099 3.38124
Spine1  4.46738 3.52708 -5.14334
HEad  8.34269 17.3634 -6.04574
LeftShoulder1  6.26714 -9.53142 -41.701
LeftArm  -22.0629 17.7977 -26.6913
LeftForeArm  41.1367 -38.5268 -6.3858
LeftHand  -0.244104 0.0205437 5.32207
RightShoulder  4.84897 8.52354 34.3636
RightArm  11.7823 -11.7531 38.6032
RightForeArm  3.14336 29.5389 6.25487
RightHand  -1.71531 4.84129 -19.488
LeftUpLeg  -14.0235 -19.8167 2.96325
LeftLeg  17.3002 -18.7995 -5.93668
LeftFoot  -5.4987 0.319798 -5.56233
LeftToes  -5.82109e-011 -4.83791e-012 -1.00937e-011
151
root  -79.5533 40.8014 -0.637664 2.86368 35.2814 3.57866
RightUpLeg  -4.29107 -5.40026 -12.8489
RightLeg  16.7816 7.53821 1.47738
RightFoot  -11.7506 -0.0599088 5.68207
RightToes  -4.65663e-010 0 -3.6325e-017
Spine  13.1112 2.17432 4.55845
Spine1  3.81282 3.83773 -4.99381
HEad  7.92987 18.8195 -6.51327
LeftShoulder1  6.34877 -9.59937 -42.0484
LeftArm  -21.2399 17.4869 -26.9686
LeftForeArm  41.467 -38.0911 -6.24796
LeftHand  -0.244104 0.0205437 5.32207
RightShoulder  4.71294 8.49808 33.3258
RightArm  14.3117 -12.2321 38.6022
RightForeArm  4.39854 26.7721 5.5265
RightHand  -1.21993 3.60287 -15.9486
LeftUpLeg  -14.6595 -12.1941 2.57698
LeftLeg  14.1763 -15.2539 -3.22807
LeftFoot  -3.37977 0.477567 -6.64118
LeftToes  -5.82109e-011 -4.83791e-012 -1.00937e-011
152
root  -80.4241 41.03 -0.471595 4.672 40.5793 4.35585
RightUpLeg  -3.88967 -10.3983 -12.3552
RightLeg  15.2042 6.37469 1.75352
RightFoot  -10.9274 -0.0902541 4.45261
RightToes  -4.65663e-010 0 -3.6325e-017
Spine  12.0701 2.32884 4.28929
Spine1  3.34443 3.61938 -3.73883
HEad  7.23389 19.8858 -6.48803
LeftShoulder1  6.52554 -9.77583 -42.6887
LeftArm  -20.0874 18.0502 -27.0917
LeftForeArm  41.4633 -38.1841 -6.27335
LeftHand  -0.244104 0.0205437 5.32207
RightShoulder  4.63976 8.52845 32.6199
RightArm  16.2188 -13.395 37.8703
RightForeArm  4.90036 25.6897 5.25489
RightHand  -1.11612 3.33216 -15.0236
LeftUpLeg  -15.133 -3.53609 0.858567
LeftLeg  12.7422 -5.86914 -0.843295
LeftFoot  -2.78543 0.354651 -4.45143
LeftToes  -5.82109e-011 -4.83791e-012 -1.00937e-011
153
root  -81.2045 41.2046 -0.295673 5.87561 46.1939 4.82234
RightUpLeg  -3.13157 -12.5482 -11.5671
RightLeg  13.9084 2.41932 1.93763
RightFoot  -10.2582 -0.0992885 3.13705
RightToes  -4.65663e-010 0 -3.6325e-017
Spine  11.0685 1.99679 4.23828
Spine1  3.19305 3.01511 -2.73302
HEad  6.11688 20.1361 -6.23694
LeftShoulder1  6.63573 -9.94347 -42.8819
LeftArm  -18.8604 18.8895 -27.4081
LeftForeArm  41.357 -37.9664 -6.22028
LeftHand  -0.244104 0.0205437 5.32207
RightShoulder  4.68191 8.55598 32.8806
RightArm  16.9683 -14.5241 36.6803
RightForeArm  3.15799 25.3535 5.2714
RightHand  -1.45289 4.0857 -17.8791
LeftUpLeg  -15.4191 2.81404 -0.692457
LeftLeg  13.8281 1.85953 0.573818
LeftFoot  -4.10169 0.0812591 -0.883954
LeftToes  -5.82109e-011 -4.83791e-012 -1.00937e-011
